<svg width="0" height="0" class="hidden">
  <symbol  xmlns="http://www.w3.org/2000/svg" viewBox="0 0 22 22" id="comment">
    <path d="M10.25 11a1.125 1.125 0 102.25 0 1.125 1.125 0 00-2.25 0zm4.688 0a1.125 1.125 0 102.25 0 1.125 1.125 0 00-2.25 0zm-9.375 0a1.125 1.125 0 102.25 0 1.125 1.125 0 00-2.25 0zM21.06 6.931A10.503 10.503 0 0011.375.5h-.047A10.475 10.475 0 00.875 11.05 10.533 10.533 0 002 15.733v3.563a1.078 1.078 0 001.078 1.078h3.565a10.533 10.533 0 004.685 1.125h.05c1.403 0 2.765-.272 4.047-.804a10.417 10.417 0 003.347-2.231 10.475 10.475 0 003.103-7.418 10.46 10.46 0 00-.815-4.116zm-3.542 10.266a8.673 8.673 0 01-6.143 2.522h-.04a8.75 8.75 0 01-4.057-1.02l-.197-.105h-3.3v-3.3l-.105-.197a8.75 8.75 0 01-1.02-4.057 8.665 8.665 0 012.522-6.183 8.653 8.653 0 016.16-2.576h.04c1.171 0 2.308.228 3.38.678a8.664 8.664 0 012.788 1.875 8.683 8.683 0 012.552 6.206 8.685 8.685 0 01-2.58 6.157z" ></path>
  </symbol>
  <symbol  xmlns="http://www.w3.org/2000/svg" viewBox="0 0 19 20" id="like">
    <path d="M18.138 10.51c.394-.52.612-1.158.612-1.822 0-1.052-.588-2.048-1.535-2.604a1.586 1.586 0 00-.804-.218h-5.62l.14-2.88a2.509 2.509 0 00-.691-1.861A2.498 2.498 0 008.414.342c-1.219 0-2.297.82-2.62 1.995L3.78 9.626H.75a.75.75 0 00-.75.75v8.531c0 .415.335.75.75.75h14.093c.216 0 .427-.042.621-.127a3.014 3.014 0 001.709-3.642 3.016 3.016 0 00.485-2.688c.394-.52.611-1.158.611-1.821a3.2 3.2 0 00-.13-.87zm-16.45 7.46v-6.657h1.898v6.657H1.688zm14.915-8.274l-.513.445.326.596a1.338 1.338 0 01-.298 1.648l-.513.445.325.595a1.338 1.338 0 01-.298 1.648l-.512.445.325.595a1.332 1.332 0 01-.626 1.854H5.086v-6.729L7.418 2.79a1.034 1.034 0 01.989-.757.833.833 0 01.837.872l-.225 4.65h7.368c.418.255.675.687.675 1.134 0 .387-.168.753-.459 1.008z"></path>
  </symbol>
  <symbol  xmlns="http://www.w3.org/2000/svg" viewBox="0 0 19 20" id="save">
    <path d="M18.312 4.874L14.5 1.064a1.494 1.494 0 00-.626-.376V.625H.75a.75.75 0 00-.75.75v17.25c0 .415.335.75.75.75H18a.75.75 0 00.75-.75V5.934c0-.399-.157-.779-.438-1.06zM6.375 2.313h6V4.75h-6V2.312zm10.688 15.374H1.688V2.313h3.187V5.5c0 .415.335.75.75.75h7.5a.75.75 0 00.75-.75V2.823l3.188 3.188v11.677zM9.375 8.36a3.376 3.376 0 10.002 6.752 3.376 3.376 0 00-.002-6.752zm0 5.25a1.875 1.875 0 11-.001-3.749 1.875 1.875 0 01.001 3.75z"></path>
  </symbol>
  <symbol  xmlns="http://www.w3.org/2000/svg" viewBox="0 0 18 20" id="share">
    <path d="M15 13.563a2.8 2.8 0 00-1.767.625l-4.856-3.513a3.766 3.766 0 000-1.35l4.856-3.513A2.8 2.8 0 0015 6.437a2.815 2.815 0 002.813-2.812A2.815 2.815 0 0015 .812a2.815 2.815 0 00-2.702 3.593l-4.613 3.34A3.749 3.749 0 00.937 10a3.749 3.749 0 006.748 2.255l4.613 3.34A2.815 2.815 0 0015 19.188a2.815 2.815 0 002.813-2.813A2.815 2.815 0 0015 13.562zm0-11.157a1.22 1.22 0 11-.001 2.439A1.22 1.22 0 0115 2.406zM4.687 12.062A2.066 2.066 0 012.626 10c0-1.137.926-2.063 2.063-2.063 1.136 0 2.062.926 2.062 2.063a2.066 2.066 0 01-2.063 2.063zM15 17.595a1.22 1.22 0 11.001-2.439A1.22 1.22 0 0115 17.594z"></path>
  </symbol>
   <symbol xmlns="http://www.w3.org/2000/svg" viewBox="0 0 22 22" id="exit">
    <path d="M15.537 1.927a.188.188 0 00-.272.17V3.6c0 .129.068.248.176.319a8.255 8.255 0 011.458 1.167 8.319 8.319 0 012.442 5.906 8.33 8.33 0 01-2.442 5.906 8.274 8.274 0 01-2.653 1.79 8.265 8.265 0 01-3.246.657 8.27 8.27 0 01-3.247-.656A8.274 8.274 0 015.1 16.9a8.32 8.32 0 01-2.442-5.906A8.329 8.329 0 015.1 5.086 8.473 8.473 0 016.558 3.92a.374.374 0 00.176-.32V2.095c0-.14-.148-.23-.272-.169a10.14 10.14 0 00-5.587 8.941C.809 16.463 5.386 21.113 10.98 21.125c5.601.012 10.144-4.53 10.144-10.134 0-3.966-2.274-7.4-5.588-9.064zM10.25 12.125h1.5a.188.188 0 00.187-.188V1.063a.188.188 0 00-.187-.188h-1.5a.188.188 0 00-.188.188v10.874c0 .104.085.188.188.188z"></path>
  </symbol>
  <symbol xmlns="http://www.w3.org/2000/svg" viewBox="0 0 12 14" id="fire">
    <path d="M11.033 6.331a5.43 5.43 0 00-1.295-1.8l-.455-.417a.127.127 0 00-.203.052l-.203.583c-.127.365-.36.739-.69 1.106a.098.098 0 01-.064.031.086.086 0 01-.067-.023.092.092 0 01-.031-.075c.058-.94-.223-2.002-.84-3.157-.508-.959-1.216-1.707-2.1-2.23L4.438.023a.125.125 0 00-.187.114l.034.75c.023.513-.036.966-.177 1.342-.171.461-.418.89-.734 1.274a4.62 4.62 0 01-.742.72 5.51 5.51 0 00-1.567 1.899 5.434 5.434 0 00-.133 4.535 5.49 5.49 0 002.928 2.9 5.5 5.5 0 002.14.429c.742 0 1.46-.144 2.14-.427a5.445 5.445 0 001.747-1.167A5.408 5.408 0 0011.5 8.533c0-.762-.156-1.503-.467-2.202zM9.14 11.633A4.43 4.43 0 016 12.921a4.43 4.43 0 01-3.14-1.288 4.34 4.34 0 01-1.297-3.1c0-.68.153-1.331.454-1.937a4.42 4.42 0 011.263-1.53c.339-.26.646-.557.915-.888.39-.476.697-1.007.91-1.578a3.75 3.75 0 00.189-.726c.376.347.692.765.956 1.256.522.978.763 1.848.716 2.589a1.156 1.156 0 002.012.847 5.09 5.09 0 00.538-.713c.218.28.401.585.546.913a4.33 4.33 0 01.376 1.767c0 1.17-.461 2.272-1.297 3.1z"></path>
  </symbol>
  <symbol xmlns="http://www.w3.org/2000/svg" viewBox="0 0 14 12" id="photo">
    <path d="M13.5.5H.5A.5.5 0 000 1v10a.5.5 0 00.5.5h13a.5.5 0 00.5-.5V1a.5.5 0 00-.5-.5zm-.625 9.875H1.125v-.623l2.164-2.568 2.345 2.782L9.283 5.64l3.592 4.26v.475zm0-2.028L9.378 4.2a.124.124 0 00-.19 0L5.633 8.412l-2.25-2.667a.124.124 0 00-.19 0L1.125 8.198V1.625h11.75v6.722zM3.75 5.125a1.375 1.375 0 100-2.75 1.375 1.375 0 000 2.75zm0-1.813a.437.437 0 11.001.874.437.437 0 01-.001-.873z"></path>
  </symbol>
  <symbol  xmlns="http://www.w3.org/2000/svg" viewBox="0 0 14 12" id="video">
    <path d="M13.25 2.723l-2 1.152V1.5a1 1 0 00-1-1H1a1 1 0 00-1 1v9a1 1 0 001 1h9.25a1 1 0 001-1V8.125l2 1.152a.5.5 0 00.75-.432V3.156a.5.5 0 00-.75-.433zm-3.125 7.652h-9v-8.75h9v8.75zm2.75-2.61l-1.625-.934v-1.66l1.625-.937v3.532zM2.25 3.626H4a.125.125 0 00.125-.125v-.75A.125.125 0 004 2.625H2.25a.125.125 0 00-.125.125v.75c0 .069.056.125.125.125z"></path>
  </symbol>
  <symbol version="1.0" xmlns="http://www.w3.org/2000/svg" viewBox="0 0 1158 1280" id="hacker">
    <path d="M554.7 1.1c-60.7 5.3-118.4 31.4-168 75.6-48.2 43.2-85.4 104.9-100.6 167.1-6.3 25.9-7.5 36.2-7.5 66.2 0 32.8 1 39.7 10.9 74.5 3.4 12.1 9.7 36.6 14 54.5 11.2 47.1 16.4 63.8 26.2 83.7 8.6 17.6 20.1 29.8 32.2 34.3 2.9 1.1 8.7 2.5 12.8 3.1 13.4 1.9 53.8 16.2 58.8 20.9 4.7 4.4 21.7 40.1 27.9 58.5 4.5 13.1 4.7 13.5 8.7 15.5 6.4 3.3 34.5 10.1 53.4 12.9 29.6 4.5 67.5 4.7 99 .6 15.7-2 49.5-8.6 59-11.6 9.7-3 11.5-5.2 16-19.5 2-6.5 5.5-16.4 7.7-21.9 5.3-13.4 16.4-34.2 19.2-36 4.3-2.8 19.5-8.5 33.8-12.6 11.1-3.1 17-4.2 26.5-4.9 16.1-1.1 21.7-3.5 31.1-13.4 15.4-16.3 24.5-40.7 37.1-98.6 8.3-37.9 11.1-49.6 15.8-66 9.4-32.6 11.9-51.2 11-82.5-3.1-104.7-68.8-210.9-164-264.9-49.5-28.1-105.5-40.5-161-35.5zm-97.2 238.3c34.3 10.1 61.8 34.6 68.2 61 1.4 5.8 1.5 8.3.6 15.4-1 7.7-1.9 10.2-9.2 24.9-34 68.2-62.1 93.5-96.3 86.9-32-6.2-62.8-36.7-73-72.1-2-7-2.3-10.1-2.2-24.5.1-13.4.5-17.9 2.2-24.2 9.8-36.2 35.9-62.4 69.2-69.4 10.4-2.2 29.4-1.2 40.5 2zm282.8-2c35.1 6.7 62.9 36 70.9 74.6 2.6 12.5 2.1 32.7-1.1 44-8.3 28.8-32 56.2-58.4 67.2-41.1 17.3-72.2-5.7-110.5-81.8-10.5-20.7-12.1-28.9-8.3-43.1 7.2-27.4 38.6-52.8 75.2-60.8 8.5-1.8 22.9-1.8 32.2-.1zM587.2 439.7c26.3 25.4 45.4 57.1 56.8 94.8 2 6.8 2 7 .2 9.4-2.6 3.6-7.8 5.9-16.8 7.7-10.7 2.1-14.8 1.3-28.9-5.4-11.1-5.3-12.5-5.7-19-5.7-6.8 0-7.3.2-17 6l-9.9 6-9.6-.1c-10.7-.1-18.5-1.5-24.6-4.5-6-2.8-6.7-5.1-4.4-14.6 5.2-21.6 16.1-43.4 33.2-66 7-9.2 26.8-31.9 29.2-33.5 2.3-1.6 4-.6 10.8 5.9z"></path>
    <path d="M763.1 610.9c-9.5 2.8-19.6 8.3-31.3 17.1l-10.5 7.9-5.3 14.8c-9.7 27.2-20.2 46.2-28.7 51.7-3.9 2.5-12.9 5-33.4 9.1-29.1 5.9-65.1 9.1-90.9 8.1-37.5-1.6-82.4-10-92.7-17.5-8.6-6.2-18.5-23.7-28.4-49.9-3.2-8.5-6-15.6-6.1-15.8-.7-.6-26.8-10.8-32.3-12.6-9.9-3.2-19.2-4.8-27.6-4.8-7 0-7.9.2-7.9 1.8 0 3.1 9.2 33.8 20 66.7 5.6 17 13.3 42 17.2 55.5 13.1 46.1 20.3 54 54.8 60.9 51.7 10.3 105.1 12.4 171.5 6.6 37.5-3.3 91-10.8 97.8-13.7 10.5-4.5 15.3-14.1 24.1-48.4 3.6-13.8 9.2-34.3 12.6-45.5 20.7-69.5 26.8-91.5 25.6-92.6-.4-.4-5.5-.9-11.4-1-8.1-.2-12.3.2-17.1 1.6z"></path>
    <path d="M71.3 622.9c-13.4 3.7-22.1 9.6-28.4 19.3-5.2 8.1-6.2 13.3-4.4 24.1 2.2 13.9.7 16.7-12.5 22.2-3.6 1.5-8 3.6-9.9 4.8-3.6 2.2-10.7 12.5-13.5 19.7-3.7 9.4-3.1 23.2 1.5 35.7 4.8 12.6 19.4 30.2 32.3 38.7 28.1 18.6 50.7 18.8 87.4.9 15.3-7.5 13.1-7.5 26.8.7 4.5 2.7 35.6 20.7 69 40.1 33.5 19.3 66.5 38.4 73.4 42.4 50.5 29.2 105.6 61 116.5 67.3 7.2 4.1 24.3 14 38 22 13.8 7.9 32.8 18.9 42.3 24.4s17.2 10.2 17 10.3c-.2.2-10 5.9-21.8 12.7-48.7 28.1-123.6 71.4-155 89.6-19.2 11.2-34.6 19.5-36 19.5-1.4 0-6.3-1.9-11-4.2-20.3-10-38.6-14.9-51.8-13.7-18.6 1.7-35.2 10.3-51.2 26.5-11.7 11.9-18.6 24.2-21.1 37.8-3.7 19.5 5.5 39 20.5 43.9 7.8 2.5 13.2 6 14.6 9.4.9 2.2 1.1 5.4.4 11.8-1.2 13-.8 16 3.2 24 9.2 18.8 27.5 28.1 52.4 26.9 21.4-1.1 44.2-10.8 57.8-24.7 7.6-7.7 12.2-15.3 15.9-26 3.6-10.6 5.1-19.5 6.1-36.8l.7-11.7 9.5-5.6c5.2-3.1 43.3-25.1 84.5-48.9 41.3-23.8 91-52.6 110.5-63.8 19.5-11.3 37.4-21.7 39.8-23l4.2-2.4 4.3 2.4c6.5 3.7 120 69.3 130.2 75.3 5 2.9 31.1 18 58 33.5 27 15.5 50.7 29.3 52.8 30.6 3.7 2.4 3.7 2.5 3.7 9 0 9.7 1.8 24.8 4.2 34.4 6.6 27.2 25.2 45.1 56.6 54.7 7.6 2.3 10.5 2.6 22.7 2.7 12.7 0 14.7-.3 21.4-2.7 13.4-4.8 22-12.4 28.5-25.4 2.9-5.9 3.3-9.9 2.1-22.9-1.2-13.7-1-13.9 18.2-22.4 6.7-3 10.5-6.9 14.3-15.2 9.1-19.5 2.3-44.3-18-64.9-12.2-12.3-23.4-19.5-37.2-23.7-18.9-5.9-35.9-3.1-65.1 10.5l-11.7 5.5-3.8-1.9c-2-1.1-25.3-14.4-51.7-29.7-26.4-15.3-67.1-38.9-90.5-52.4-48.8-28.1-66.4-38.3-66.8-38.7-.1-.1 7.7-4.9 17.5-10.5 9.8-5.7 28.8-16.7 42.3-24.5 28.4-16.5 63.1-36.5 109-63 17.9-10.3 35-20.1 38-21.9 3-1.8 11.8-6.9 19.5-11.3 7.7-4.5 28.2-16.3 45.5-26.3s40.5-23.4 51.5-29.8c11-6.3 24.3-14.1 29.5-17.2 5.2-3.2 11.2-6.6 13.2-7.6l3.7-1.7 13.3 6.5c35.4 17.4 58.4 17.7 84.2 1.1 26-16.7 41.1-41.7 39.3-65.2-.5-6.4-1.3-9-5.3-16.9-5.5-10.8-8.5-13.7-19.3-18.2-4.2-1.8-8.8-4.1-10.3-5.2-3.7-2.6-4.9-7.5-3.7-14.6 1.8-10.6 1.3-16.8-1.7-23-8.2-16.8-27.3-26.1-51.3-24.9-13.5.6-24 3.4-36.6 9.7-12 5.9-21.1 13.1-27 21.1-10 13.6-14.4 28.3-16.1 54.2-.4 5.6-1.1 11-1.5 11.9-1 1.9-3.9 3.6-33.9 20.8-11.8 6.7-23.5 13.5-26 15s-26.5 15.4-53.5 31c-26.9 15.5-54.6 31.5-61.5 35.5-6.9 4-23.1 13.3-36 20.8-23.7 13.6-36.8 21.2-60.5 34.9-7.1 4.1-21.5 12.5-32 18.5-10.4 6-37.8 21.8-60.7 35.1L579 953.9l-21.7-12.5c-12-6.9-30.6-17.7-41.3-23.9-10.7-6.2-31-17.9-45-26-14-8.1-30-17.3-35.5-20.5-5.5-3.2-30.2-17.5-55-31.8-101.2-58.3-193.4-111.6-199.7-115.3-3.7-2.2-7.2-4.7-7.7-5.7-.4-.9-1.1-6.2-1.5-11.7-2.2-32.4-9.7-51-26.2-64.8-8.1-6.9-23.4-14.6-34.9-17.8-11.6-3.1-29.6-3.6-39.2-1z"></path>
  </symbol>
</svg>